<svg id="visual" viewBox="0 0 900 600" width="900" height="600" xmlns="http://www.w3.org/2000/svg" xmlns:xlink="http://www.w3.org/1999/xlink" version="1.1"><rect x="0" y="0" width="900" height="600" fill="#050417"></rect><defs><linearGradient id="grad1_0" x1="33.3%" y1="0%" x2="100%" y2="100%"><stop offset="20%" stop-color="#ff2500" stop-opacity="1"></stop><stop offset="80%" stop-color="#ff2500" stop-opacity="1"></stop></linearGradient></defs><defs><linearGradient id="grad1_1" x1="33.3%" y1="0%" x2="100%" y2="100%"><stop offset="20%" stop-color="#ff2500" stop-opacity="1"></stop><stop offset="80%" stop-color="#e20039" stop-opacity="1"></stop></linearGradient></defs><defs><linearGradient id="grad1_2" x1="33.3%" y1="0%" x2="100%" y2="100%"><stop offset="20%" stop-color="#b70050" stop-opacity="1"></stop><stop offset="80%" stop-color="#e20039" stop-opacity="1"></stop></linearGradient></defs><defs><linearGradient id="grad1_3" x1="33.3%" y1="0%" x2="100%" y2="100%"><stop offset="20%" stop-color="#b70050" stop-opacity="1"></stop><stop offset="80%" stop-color="#830057" stop-opacity="1"></stop></linearGradient></defs><defs><linearGradient id="grad1_4" x1="33.3%" y1="0%" x2="100%" y2="100%"><stop offset="20%" stop-color="#50164e" stop-opacity="1"></stop><stop offset="80%" stop-color="#830057" stop-opacity="1"></stop></linearGradient></defs><defs><linearGradient id="grad1_5" x1="33.3%" y1="0%" x2="100%" y2="100%"><stop offset="20%" stop-color="#50164e" stop-opacity="1"></stop><stop offset="80%" stop-color="#241537" stop-opacity="1"></stop></linearGradient></defs><defs><linearGradient id="grad1_6" x1="33.3%" y1="0%" x2="100%" y2="100%"><stop offset="20%" stop-color="#050417" stop-opacity="1"></stop><stop offset="80%" stop-color="#241537" stop-opacity="1"></stop></linearGradient></defs><defs><linearGradient id="grad2_0" x1="0%" y1="0%" x2="66.7%" y2="100%"><stop offset="20%" stop-color="#ff2500" stop-opacity="1"></stop><stop offset="80%" stop-color="#ff2500" stop-opacity="1"></stop></linearGradient></defs><defs><linearGradient id="grad2_1" x1="0%" y1="0%" x2="66.7%" y2="100%"><stop offset="20%" stop-color="#e20039" stop-opacity="1"></stop><stop offset="80%" stop-color="#ff2500" stop-opacity="1"></stop></linearGradient></defs><defs><linearGradient id="grad2_2" x1="0%" y1="0%" x2="66.7%" y2="100%"><stop offset="20%" stop-color="#e20039" stop-opacity="1"></stop><stop offset="80%" stop-color="#b70050" stop-opacity="1"></stop></linearGradient></defs><defs><linearGradient id="grad2_3" x1="0%" y1="0%" x2="66.7%" y2="100%"><stop offset="20%" stop-color="#830057" stop-opacity="1"></stop><stop offset="80%" stop-color="#b70050" stop-opacity="1"></stop></linearGradient></defs><defs><linearGradient id="grad2_4" x1="0%" y1="0%" x2="66.7%" y2="100%"><stop offset="20%" stop-color="#830057" stop-opacity="1"></stop><stop offset="80%" stop-color="#50164e" stop-opacity="1"></stop></linearGradient></defs><defs><linearGradient id="grad2_5" x1="0%" y1="0%" x2="66.7%" y2="100%"><stop offset="20%" stop-color="#241537" stop-opacity="1"></stop><stop offset="80%" stop-color="#50164e" stop-opacity="1"></stop></linearGradient></defs><defs><linearGradient id="grad2_6" x1="0%" y1="0%" x2="66.7%" y2="100%"><stop offset="20%" stop-color="#241537" stop-opacity="1"></stop><stop offset="80%" stop-color="#050417" stop-opacity="1"></stop></linearGradient></defs><g transform="translate(900, 0)"><path d="M0 189.3C-25.6 187.6 -51.3 185.9 -72.4 174.9C-93.6 163.9 -110.3 143.6 -124.5 124.5C-138.6 105.3 -150.4 87.1 -160.8 66.6C-171.1 46 -180.2 23 -189.3 0L0 0Z" fill="#151027"></path><path d="M0 162.2C-22 160.8 -44 159.3 -62.1 149.9C-80.2 140.5 -94.5 123.1 -106.7 106.7C-118.8 90.2 -128.9 74.7 -137.8 57.1C-146.7 39.4 -154.5 19.7 -162.2 0L0 0Z" fill="#381744"></path><path d="M0 135.2C-18.3 134 -36.6 132.8 -51.7 124.9C-66.9 117.1 -78.8 102.6 -88.9 88.9C-99 75.2 -107.4 62.2 -114.8 47.6C-122.2 32.9 -128.7 16.4 -135.2 0L0 0Z" fill="#691055"></path><path d="M0 108.2C-14.7 107.2 -29.3 106.2 -41.4 99.9C-53.5 93.7 -63 82.1 -71.1 71.1C-79.2 60.2 -85.9 49.8 -91.9 38C-97.8 26.3 -103 13.1 -108.2 0L0 0Z" fill="#9e0056"></path><path d="M0 81.1C-11 80.4 -22 79.7 -31 74.9C-40.1 70.2 -47.3 61.6 -53.3 53.3C-59.4 45.1 -64.4 37.3 -68.9 28.5C-73.3 19.7 -77.2 9.9 -81.1 0L0 0Z" fill="#ce0047"></path><path d="M0 54.1C-7.3 53.6 -14.7 53.1 -20.7 50C-26.7 46.8 -31.5 41 -35.6 35.6C-39.6 30.1 -43 24.9 -45.9 19C-48.9 13.1 -51.5 6.6 -54.1 0L0 0Z" fill="#f30026"></path><path d="M0 27C-3.7 26.8 -7.3 26.6 -10.3 25C-13.4 23.4 -15.8 20.5 -17.8 17.8C-19.8 15 -21.5 12.4 -23 9.5C-24.4 6.6 -25.7 3.3 -27 0L0 0Z" fill="#ff2500"></path></g><g transform="translate(0, 600)"><path d="M0 -189.3C23.1 -183.6 46.2 -177.8 70.4 -170C94.7 -162.2 120.1 -152.2 133.8 -133.8C147.6 -115.5 149.8 -88.8 157.1 -65.1C164.4 -41.3 176.8 -20.7 189.3 0L0 0Z" fill="#151027"></path><path d="M0 -162.2C19.8 -157.3 39.6 -152.4 60.4 -145.7C81.1 -139 102.9 -130.5 114.7 -114.7C126.5 -99 128.4 -76.1 134.6 -55.8C140.9 -35.4 151.6 -17.7 162.2 0L0 0Z" fill="#381744"></path><path d="M0 -135.2C16.5 -131.1 33 -127 50.3 -121.4C67.6 -115.8 85.8 -108.7 95.6 -95.6C105.4 -82.5 107 -63.4 112.2 -46.5C117.4 -29.5 126.3 -14.8 135.2 0L0 0Z" fill="#691055"></path><path d="M0 -108.2C13.2 -104.9 26.4 -101.6 40.2 -97.1C54.1 -92.7 68.6 -87 76.5 -76.5C84.4 -66 85.6 -50.7 89.7 -37.2C93.9 -23.6 101 -11.8 108.2 0L0 0Z" fill="#9e0056"></path><path d="M0 -81.1C9.9 -78.7 19.8 -76.2 30.2 -72.9C40.6 -69.5 51.5 -65.2 57.4 -57.4C63.3 -49.5 64.2 -38 67.3 -27.9C70.4 -17.7 75.8 -8.9 81.1 0L0 0Z" fill="#ce0047"></path><path d="M0 -54.1C6.6 -52.4 13.2 -50.8 20.1 -48.6C27 -46.3 34.3 -43.5 38.2 -38.2C42.2 -33 42.8 -25.4 44.9 -18.6C47 -11.8 50.5 -5.9 54.1 0L0 0Z" fill="#f30026"></path><path d="M0 -27C3.3 -26.2 6.6 -25.4 10.1 -24.3C13.5 -23.2 17.2 -21.7 19.1 -19.1C21.1 -16.5 21.4 -12.7 22.4 -9.3C23.5 -5.9 25.3 -3 27 0L0 0Z" fill="#ff2500"></path></g></svg>