<svg id="visual" viewBox="0 0 540 960" width="540" height="960" xmlns="http://www.w3.org/2000/svg" xmlns:xlink="http://www.w3.org/1999/xlink" version="1.1"><rect x="0" y="0" width="540" height="960" fill="#0c002d"></rect><path d="M183 960L404 960L404 918L478 918L478 877L291 877L291 835L263 835L263 793L373 793L373 751L495 751L495 710L398 710L398 668L434 668L434 626L320 626L320 584L303 584L303 543L446 543L446 501L413 501L413 459L350 459L350 417L302 417L302 376L499 376L499 334L449 334L449 292L293 292L293 250L389 250L389 209L538 209L538 167L532 167L532 125L326 125L326 83L226 83L226 42L488 42L488 0L540 0L540 42L540 42L540 83L540 83L540 125L540 125L540 167L540 167L540 209L540 209L540 250L540 250L540 292L540 292L540 334L540 334L540 376L540 376L540 417L540 417L540 459L540 459L540 501L540 501L540 543L540 543L540 584L540 584L540 626L540 626L540 668L540 668L540 710L540 710L540 751L540 751L540 793L540 793L540 835L540 835L540 877L540 877L540 918L540 918L540 960L540 960Z" fill="#ff0000"></path><path d="M226 960L525 960L525 918L424 918L424 877L539 877L539 835L262 835L262 793L462 793L462 751L417 751L417 710L417 710L417 668L415 668L415 626L423 626L423 584L523 584L523 543L305 543L305 501L350 501L350 459L293 459L293 417L288 417L288 376L329 376L329 334L405 334L405 292L310 292L310 250L460 250L460 209L515 209L515 167L486 167L486 125L265 125L265 83L524 83L524 42L539 42L539 0L540 0L540 42L540 42L540 83L540 83L540 125L540 125L540 167L540 167L540 209L540 209L540 250L540 250L540 292L540 292L540 334L540 334L540 376L540 376L540 417L540 417L540 459L540 459L540 501L540 501L540 543L540 543L540 584L540 584L540 626L540 626L540 668L540 668L540 710L540 710L540 751L540 751L540 793L540 793L540 835L540 835L540 877L540 877L540 918L540 918L540 960L540 960Z" fill="#fc0023"></path><path d="M512 960L373 960L373 918L245 918L245 877L461 877L461 835L283 835L283 793L324 793L324 751L351 751L351 710L350 710L350 668L252 668L252 626L423 626L423 584L415 584L415 543L541 543L541 501L287 501L287 459L486 459L486 417L336 417L336 376L349 376L349 334L461 334L461 292L303 292L303 250L501 250L501 209L272 209L272 167L483 167L483 125L347 125L347 83L513 83L513 42L329 42L329 0L540 0L540 42L540 42L540 83L540 83L540 125L540 125L540 167L540 167L540 209L540 209L540 250L540 250L540 292L540 292L540 334L540 334L540 376L540 376L540 417L540 417L540 459L540 459L540 501L540 501L540 543L540 543L540 584L540 584L540 626L540 626L540 668L540 668L540 710L540 710L540 751L540 751L540 793L540 793L540 835L540 835L540 877L540 877L540 918L540 918L540 960L540 960Z" fill="#f60036"></path><path d="M507 960L426 960L426 918L474 918L474 877L274 877L274 835L339 835L339 793L282 793L282 751L459 751L459 710L469 710L469 668L453 668L453 626L313 626L313 584L496 584L496 543L367 543L367 501L438 501L438 459L452 459L452 417L283 417L283 376L462 376L462 334L305 334L305 292L524 292L524 250L413 250L413 209L328 209L328 167L442 167L442 125L532 125L532 83L477 83L477 42L343 42L343 0L540 0L540 42L540 42L540 83L540 83L540 125L540 125L540 167L540 167L540 209L540 209L540 250L540 250L540 292L540 292L540 334L540 334L540 376L540 376L540 417L540 417L540 459L540 459L540 501L540 501L540 543L540 543L540 584L540 584L540 626L540 626L540 668L540 668L540 710L540 710L540 751L540 751L540 793L540 793L540 835L540 835L540 877L540 877L540 918L540 918L540 960L540 960Z" fill="#ee0046"></path><path d="M510 960L335 960L335 918L408 918L408 877L491 877L491 835L386 835L386 793L471 793L471 751L326 751L326 710L376 710L376 668L446 668L446 626L407 626L407 584L294 584L294 543L504 543L504 501L456 501L456 459L447 459L447 417L390 417L390 376L501 376L501 334L332 334L332 292L466 292L466 250L373 250L373 209L388 209L388 167L523 167L523 125L332 125L332 83L426 83L426 42L379 42L379 0L540 0L540 42L540 42L540 83L540 83L540 125L540 125L540 167L540 167L540 209L540 209L540 250L540 250L540 292L540 292L540 334L540 334L540 376L540 376L540 417L540 417L540 459L540 459L540 501L540 501L540 543L540 543L540 584L540 584L540 626L540 626L540 668L540 668L540 710L540 710L540 751L540 751L540 793L540 793L540 835L540 835L540 877L540 877L540 918L540 918L540 960L540 960Z" fill="#e40054"></path><path d="M393 960L352 960L352 918L381 918L381 877L463 877L463 835L345 835L345 793L480 793L480 751L365 751L365 710L525 710L525 668L434 668L434 626L362 626L362 584L369 584L369 543L448 543L448 501L352 501L352 459L474 459L474 417L309 417L309 376L450 376L450 334L310 334L310 292L522 292L522 250L412 250L412 209L467 209L467 167L490 167L490 125L511 125L511 83L531 83L531 42L509 42L509 0L540 0L540 42L540 42L540 83L540 83L540 125L540 125L540 167L540 167L540 209L540 209L540 250L540 250L540 292L540 292L540 334L540 334L540 376L540 376L540 417L540 417L540 459L540 459L540 501L540 501L540 543L540 543L540 584L540 584L540 626L540 626L540 668L540 668L540 710L540 710L540 751L540 751L540 793L540 793L540 835L540 835L540 877L540 877L540 918L540 918L540 960L540 960Z" fill="#d80060"></path><path d="M391 960L415 960L415 918L408 918L408 877L434 877L434 835L349 835L349 793L436 793L436 751L504 751L504 710L541 710L541 668L405 668L405 626L405 626L405 584L356 584L356 543L417 543L417 501L490 501L490 459L503 459L503 417L405 417L405 376L383 376L383 334L427 334L427 292L502 292L502 250L415 250L415 209L518 209L518 167L376 167L376 125L530 125L530 83L449 83L449 42L389 42L389 0L540 0L540 42L540 42L540 83L540 83L540 125L540 125L540 167L540 167L540 209L540 209L540 250L540 250L540 292L540 292L540 334L540 334L540 376L540 376L540 417L540 417L540 459L540 459L540 501L540 501L540 543L540 543L540 584L540 584L540 626L540 626L540 668L540 668L540 710L540 710L540 751L540 751L540 793L540 793L540 835L540 835L540 877L540 877L540 918L540 918L540 960L540 960Z" fill="#ca0069"></path><path d="M454 960L432 960L432 918L459 918L459 877L460 877L460 835L367 835L367 793L504 793L504 751L371 751L371 710L397 710L397 668L427 668L427 626L391 626L391 584L395 584L395 543L498 543L498 501L377 501L377 459L530 459L530 417L406 417L406 376L458 376L458 334L456 334L456 292L457 292L457 250L507 250L507 209L394 209L394 167L387 167L387 125L445 125L445 83L479 83L479 42L413 42L413 0L540 0L540 42L540 42L540 83L540 83L540 125L540 125L540 167L540 167L540 209L540 209L540 250L540 250L540 292L540 292L540 334L540 334L540 376L540 376L540 417L540 417L540 459L540 459L540 501L540 501L540 543L540 543L540 584L540 584L540 626L540 626L540 668L540 668L540 710L540 710L540 751L540 751L540 793L540 793L540 835L540 835L540 877L540 877L540 918L540 918L540 960L540 960Z" fill="#bb0072"></path><path d="M526 960L400 960L400 918L475 918L475 877L489 877L489 835L419 835L419 793L517 793L517 751L448 751L448 710L425 710L425 668L493 668L493 626L397 626L397 584L476 584L476 543L496 543L496 501L414 501L414 459L479 459L479 417L503 417L503 376L488 376L488 334L455 334L455 292L442 292L442 250L507 250L507 209L412 209L412 167L452 167L452 125L407 125L407 83L488 83L488 42L427 42L427 0L540 0L540 42L540 42L540 83L540 83L540 125L540 125L540 167L540 167L540 209L540 209L540 250L540 250L540 292L540 292L540 334L540 334L540 376L540 376L540 417L540 417L540 459L540 459L540 501L540 501L540 543L540 543L540 584L540 584L540 626L540 626L540 668L540 668L540 710L540 710L540 751L540 751L540 793L540 793L540 835L540 835L540 877L540 877L540 918L540 918L540 960L540 960Z" fill="#a8007b"></path><path d="M518 960L489 960L489 918L451 918L451 877L513 877L513 835L437 835L437 793L518 793L518 751L431 751L431 710L431 710L431 668L483 668L483 626L519 626L519 584L490 584L490 543L445 543L445 501L477 501L477 459L487 459L487 417L488 417L488 376L477 376L477 334L535 334L535 292L470 292L470 250L466 250L466 209L535 209L535 167L517 167L517 125L429 125L429 83L522 83L522 42L458 42L458 0L540 0L540 42L540 42L540 83L540 83L540 125L540 125L540 167L540 167L540 209L540 209L540 250L540 250L540 292L540 292L540 334L540 334L540 376L540 376L540 417L540 417L540 459L540 459L540 501L540 501L540 543L540 543L540 584L540 584L540 626L540 626L540 668L540 668L540 710L540 710L540 751L540 751L540 793L540 793L540 835L540 835L540 877L540 877L540 918L540 918L540 960L540 960Z" fill="#920083"></path><path d="M473 960L467 960L467 918L457 918L457 877L471 877L471 835L496 835L496 793L465 793L465 751L538 751L538 710L518 710L518 668L531 668L531 626L531 626L531 584L536 584L536 543L455 543L455 501L469 501L469 459L457 459L457 417L517 417L517 376L537 376L537 334L468 334L468 292L488 292L488 250L483 250L483 209L516 209L516 167L525 167L525 125L513 125L513 83L530 83L530 42L470 42L470 0L540 0L540 42L540 42L540 83L540 83L540 125L540 125L540 167L540 167L540 209L540 209L540 250L540 250L540 292L540 292L540 334L540 334L540 376L540 376L540 417L540 417L540 459L540 459L540 501L540 501L540 543L540 543L540 584L540 584L540 626L540 626L540 668L540 668L540 710L540 710L540 751L540 751L540 793L540 793L540 835L540 835L540 877L540 877L540 918L540 918L540 960L540 960Z" fill="#77008a"></path><path d="M541 960L513 960L513 918L513 918L513 877L531 877L531 835L528 835L528 793L513 793L513 751L526 751L526 710L525 710L525 668L525 668L525 626L507 626L507 584L520 584L520 543L536 543L536 501L509 501L509 459L525 459L525 417L507 417L507 376L536 376L536 334L487 334L487 292L486 292L486 250L531 250L531 209L540 209L540 167L522 167L522 125L505 125L505 83L530 83L530 42L501 42L501 0L540 0L540 42L540 42L540 83L540 83L540 125L540 125L540 167L540 167L540 209L540 209L540 250L540 250L540 292L540 292L540 334L540 334L540 376L540 376L540 417L540 417L540 459L540 459L540 501L540 501L540 543L540 543L540 584L540 584L540 626L540 626L540 668L540 668L540 710L540 710L540 751L540 751L540 793L540 793L540 835L540 835L540 877L540 877L540 918L540 918L540 960L540 960Z" fill="#560090"></path></svg>