<svg id="visual" viewBox="0 0 450 900" width="450" height="900" xmlns="http://www.w3.org/2000/svg" xmlns:xlink="http://www.w3.org/1999/xlink" version="1.1"><path d="M427 900L440 825L436 750L427 675L440 600L422 525L422 450L436 375L440 300L436 225L431 150L440 75L431 0L450 0L450 75L450 150L450 225L450 300L450 375L450 450L450 525L450 600L450 675L450 750L450 825L450 900Z" fill="#00cc8e"></path><path d="M413 900L422 825L413 750L418 675L427 600L400 525L413 450L427 375L431 300L427 225L422 150L427 75L413 0L432 0L441 75L432 150L437 225L441 300L437 375L423 450L423 525L441 600L428 675L437 750L441 825L428 900Z" fill="#00c58d"></path><path d="M377 900L409 825L355 750L395 675L409 600L373 525L382 450L391 375L409 300L409 225L395 150L377 75L368 0L414 0L428 75L423 150L428 225L432 300L428 375L414 450L401 525L428 600L419 675L414 750L423 825L414 900Z" fill="#00bf8b"></path><path d="M319 900L328 825L328 750L368 675L359 600L296 525L337 450L328 375L377 300L368 225L332 150L332 75L310 0L369 0L378 75L396 150L410 225L410 300L392 375L383 450L374 525L410 600L396 675L356 750L410 825L378 900Z" fill="#00b889"></path><path d="M296 900L310 825L319 750L359 675L341 600L283 525L310 450L310 375L355 300L346 225L310 150L305 75L287 0L311 0L333 75L333 150L369 225L378 300L329 375L338 450L297 525L360 600L369 675L329 750L329 825L320 900Z" fill="#00b187"></path><path d="M283 900L269 825L305 750L323 675L305 600L242 525L287 450L292 375L337 300L310 225L296 150L283 75L256 0L288 0L306 75L311 150L347 225L356 300L311 375L311 450L284 525L342 600L360 675L320 750L311 825L297 900Z" fill="#00aa85"></path><path d="M152 900L215 825L175 750L211 675L197 600L134 525L233 450L166 375L238 300L229 225L220 150L233 75L143 0L257 0L284 75L297 150L311 225L338 300L293 375L288 450L243 525L306 600L324 675L306 750L270 825L284 900Z" fill="#00a483"></path><path d="M139 900L184 825L152 750L179 675L170 600L125 525L201 450L143 375L211 300L201 225L201 150L201 75L134 0L144 0L234 75L221 150L230 225L239 300L167 375L234 450L135 525L198 600L212 675L176 750L216 825L153 900Z" fill="#009d80"></path><path d="M121 900L170 825L139 750L152 675L134 600L107 525L170 450L130 375L184 300L188 225L179 150L193 75L107 0L135 0L202 75L202 150L202 225L212 300L144 375L202 450L126 525L171 600L180 675L153 750L185 825L140 900Z" fill="#00977d"></path><path d="M71 900L71 825L58 750L44 675L89 600L67 525L67 450L71 375L67 300L48 225L48 150L71 75L71 0L108 0L194 75L180 150L189 225L185 300L131 375L171 450L108 525L135 600L153 675L140 750L171 825L122 900Z" fill="#00907a"></path><path d="M39 900L35 825L17 750L26 675L35 600L22 525L17 450L22 375L13 300L22 225L13 150L13 75L13 0L72 0L72 75L49 150L49 225L68 300L72 375L68 450L68 525L90 600L45 675L59 750L72 825L72 900Z" fill="#008977"></path><path d="M0 900L0 825L0 750L0 675L0 600L0 525L0 450L0 375L0 300L0 225L0 150L0 75L0 0L14 0L14 75L14 150L23 225L14 300L23 375L18 450L23 525L36 600L27 675L18 750L36 825L40 900Z" fill="#038373"></path></svg>