<svg id="visual" viewBox="0 0 1980 1080" width="1980" height="1080" xmlns="http://www.w3.org/2000/svg" xmlns:xlink="http://www.w3.org/1999/xlink" version="1.1"><rect x="0" y="0" width="1980" height="1080" fill="#000912"></rect><g fill="#00aeff"><path d="M0 -221.8L49.8 -68.5L210.9 -68.5L80.6 26.2L130.4 179.4L0 84.7L-130.4 179.4L-80.6 26.2L-210.9 -68.5L-49.8 -68.5Z" transform="translate(1645 202)"></path><path d="M0 -97.2L21.8 -30L92.5 -30L35.3 11.5L57.1 78.6L0 37.1L-57.1 78.6L-35.3 11.5L-92.5 -30L-21.8 -30Z" transform="translate(879 1027)"></path><path d="M0 -143.5L32.2 -44.3L136.4 -44.3L52.1 16.9L84.3 116.1L0 54.8L-84.3 116.1L-52.1 16.9L-136.4 -44.3L-32.2 -44.3Z" transform="translate(816 538)"></path><path d="M0 -172.7L38.8 -53.4L164.3 -53.4L62.7 20.4L101.5 139.7L0 66L-101.5 139.7L-62.7 20.4L-164.3 -53.4L-38.8 -53.4Z" transform="translate(267 735)"></path></g></svg>