<svg id="visual" viewBox="0 0 900 600" width="900" height="600" xmlns="http://www.w3.org/2000/svg" xmlns:xlink="http://www.w3.org/1999/xlink" version="1.1"><path d="M0 55L13.7 49C27.3 43 54.7 31 82 29C109.3 27 136.7 35 163.8 38C191 41 218 39 245.2 41C272.3 43 299.7 49 327 47C354.3 45 381.7 35 409 35C436.3 35 463.7 45 491 48C518.3 51 545.7 47 573 43C600.3 39 627.7 35 654.8 34C682 33 709 35 736.2 38C763.3 41 790.7 45 818 49C845.3 53 872.7 57 886.3 59L900 61L900 0L886.3 0C872.7 0 845.3 0 818 0C790.7 0 763.3 0 736.2 0C709 0 682 0 654.8 0C627.7 0 600.3 0 573 0C545.7 0 518.3 0 491 0C463.7 0 436.3 0 409 0C381.7 0 354.3 0 327 0C299.7 0 272.3 0 245.2 0C218 0 191 0 163.8 0C136.7 0 109.3 0 82 0C54.7 0 27.3 0 13.7 0L0 0Z" fill="#19398c"></path><path d="M0 115L13.7 132C27.3 149 54.7 183 82 190C109.3 197 136.7 177 163.8 165C191 153 218 149 245.2 152C272.3 155 299.7 165 327 181C354.3 197 381.7 219 409 223C436.3 227 463.7 213 491 192C518.3 171 545.7 143 573 134C600.3 125 627.7 135 654.8 161C682 187 709 229 736.2 234C763.3 239 790.7 207 818 193C845.3 179 872.7 183 886.3 185L900 187L900 59L886.3 57C872.7 55 845.3 51 818 47C790.7 43 763.3 39 736.2 36C709 33 682 31 654.8 32C627.7 33 600.3 37 573 41C545.7 45 518.3 49 491 46C463.7 43 436.3 33 409 33C381.7 33 354.3 43 327 45C299.7 47 272.3 41 245.2 39C218 37 191 39 163.8 36C136.7 33 109.3 25 82 27C54.7 29 27.3 41 13.7 47L0 53Z" fill="#143280"></path><path d="M0 235L13.7 247C27.3 259 54.7 283 82 291C109.3 299 136.7 291 163.8 295C191 299 218 315 245.2 322C272.3 329 299.7 327 327 324C354.3 321 381.7 317 409 315C436.3 313 463.7 313 491 302C518.3 291 545.7 269 573 259C600.3 249 627.7 251 654.8 269C682 287 709 321 736.2 320C763.3 319 790.7 283 818 275C845.3 267 872.7 287 886.3 297L900 307L900 185L886.3 183C872.7 181 845.3 177 818 191C790.7 205 763.3 237 736.2 232C709 227 682 185 654.8 159C627.7 133 600.3 123 573 132C545.7 141 518.3 169 491 190C463.7 211 436.3 225 409 221C381.7 217 354.3 195 327 179C299.7 163 272.3 153 245.2 150C218 147 191 151 163.8 163C136.7 175 109.3 195 82 188C54.7 181 27.3 147 13.7 130L0 113Z" fill="#0e2c74"></path><path d="M0 295L13.7 302C27.3 309 54.7 323 82 325C109.3 327 136.7 317 163.8 320C191 323 218 339 245.2 348C272.3 357 299.7 359 327 361C354.3 363 381.7 365 409 361C436.3 357 463.7 347 491 333C518.3 319 545.7 301 573 299C600.3 297 627.7 311 654.8 331C682 351 709 377 736.2 375C763.3 373 790.7 343 818 332C845.3 321 872.7 329 886.3 333L900 337L900 305L886.3 295C872.7 285 845.3 265 818 273C790.7 281 763.3 317 736.2 318C709 319 682 285 654.8 267C627.7 249 600.3 247 573 257C545.7 267 518.3 289 491 300C463.7 311 436.3 311 409 313C381.7 315 354.3 319 327 322C299.7 325 272.3 327 245.2 320C218 313 191 297 163.8 293C136.7 289 109.3 297 82 289C54.7 281 27.3 257 13.7 245L0 233Z" fill="#082569"></path><path d="M0 367L13.7 376C27.3 385 54.7 403 82 407C109.3 411 136.7 401 163.8 400C191 399 218 407 245.2 408C272.3 409 299.7 403 327 402C354.3 401 381.7 405 409 400C436.3 395 463.7 381 491 374C518.3 367 545.7 367 573 370C600.3 373 627.7 379 654.8 397C682 415 709 445 736.2 442C763.3 439 790.7 403 818 391C845.3 379 872.7 391 886.3 397L900 403L900 335L886.3 331C872.7 327 845.3 319 818 330C790.7 341 763.3 371 736.2 373C709 375 682 349 654.8 329C627.7 309 600.3 295 573 297C545.7 299 518.3 317 491 331C463.7 345 436.3 355 409 359C381.7 363 354.3 361 327 359C299.7 357 272.3 355 245.2 346C218 337 191 321 163.8 318C136.7 315 109.3 325 82 323C54.7 321 27.3 307 13.7 300L0 293Z" fill="#021f5e"></path><path d="M0 457L13.7 459C27.3 461 54.7 465 82 469C109.3 473 136.7 477 163.8 477C191 477 218 473 245.2 469C272.3 465 299.7 461 327 465C354.3 469 381.7 481 409 483C436.3 485 463.7 477 491 472C518.3 467 545.7 465 573 463C600.3 461 627.7 459 654.8 469C682 479 709 501 736.2 501C763.3 501 790.7 479 818 468C845.3 457 872.7 457 886.3 457L900 457L900 401L886.3 395C872.7 389 845.3 377 818 389C790.7 401 763.3 437 736.2 440C709 443 682 413 654.8 395C627.7 377 600.3 371 573 368C545.7 365 518.3 365 491 372C463.7 379 436.3 393 409 398C381.7 403 354.3 399 327 400C299.7 401 272.3 407 245.2 406C218 405 191 397 163.8 398C136.7 399 109.3 409 82 405C54.7 401 27.3 383 13.7 374L0 365Z" fill="#001c56"></path><path d="M0 487L13.7 488C27.3 489 54.7 491 82 495C109.3 499 136.7 505 163.8 507C191 509 218 507 245.2 505C272.3 503 299.7 501 327 501C354.3 501 381.7 503 409 503C436.3 503 463.7 501 491 500C518.3 499 545.7 499 573 499C600.3 499 627.7 499 654.8 506C682 513 709 527 736.2 523C763.3 519 790.7 497 818 486C845.3 475 872.7 475 886.3 475L900 475L900 455L886.3 455C872.7 455 845.3 455 818 466C790.7 477 763.3 499 736.2 499C709 499 682 477 654.8 467C627.7 457 600.3 459 573 461C545.7 463 518.3 465 491 470C463.7 475 436.3 483 409 481C381.7 479 354.3 467 327 463C299.7 459 272.3 463 245.2 467C218 471 191 475 163.8 475C136.7 475 109.3 471 82 467C54.7 463 27.3 459 13.7 457L0 455Z" fill="#001b51"></path><path d="M0 505L13.7 510C27.3 515 54.7 525 82 533C109.3 541 136.7 547 163.8 549C191 551 218 549 245.2 545C272.3 541 299.7 535 327 535C354.3 535 381.7 541 409 540C436.3 539 463.7 531 491 526C518.3 521 545.7 519 573 519C600.3 519 627.7 521 654.8 529C682 537 709 551 736.2 549C763.3 547 790.7 529 818 522C845.3 515 872.7 519 886.3 521L900 523L900 473L886.3 473C872.7 473 845.3 473 818 484C790.7 495 763.3 517 736.2 521C709 525 682 511 654.8 504C627.7 497 600.3 497 573 497C545.7 497 518.3 497 491 498C463.7 499 436.3 501 409 501C381.7 501 354.3 499 327 499C299.7 499 272.3 501 245.2 503C218 505 191 507 163.8 505C136.7 503 109.3 497 82 493C54.7 489 27.3 487 13.7 486L0 485Z" fill="#001a4c"></path><path d="M0 547L13.7 553C27.3 559 54.7 571 82 575C109.3 579 136.7 575 163.8 573C191 571 218 571 245.2 570C272.3 569 299.7 567 327 566C354.3 565 381.7 565 409 561C436.3 557 463.7 549 491 549C518.3 549 545.7 557 573 561C600.3 565 627.7 565 654.8 568C682 571 709 577 736.2 575C763.3 573 790.7 563 818 561C845.3 559 872.7 565 886.3 568L900 571L900 521L886.3 519C872.7 517 845.3 513 818 520C790.7 527 763.3 545 736.2 547C709 549 682 535 654.8 527C627.7 519 600.3 517 573 517C545.7 517 518.3 519 491 524C463.7 529 436.3 537 409 538C381.7 539 354.3 533 327 533C299.7 533 272.3 539 245.2 543C218 547 191 549 163.8 547C136.7 545 109.3 539 82 531C54.7 523 27.3 513 13.7 508L0 503Z" fill="#001947"></path><path d="M0 601L13.7 601C27.3 601 54.7 601 82 601C109.3 601 136.7 601 163.8 601C191 601 218 601 245.2 601C272.3 601 299.7 601 327 601C354.3 601 381.7 601 409 601C436.3 601 463.7 601 491 601C518.3 601 545.7 601 573 601C600.3 601 627.7 601 654.8 601C682 601 709 601 736.2 601C763.3 601 790.7 601 818 601C845.3 601 872.7 601 886.3 601L900 601L900 569L886.3 566C872.7 563 845.3 557 818 559C790.7 561 763.3 571 736.2 573C709 575 682 569 654.8 566C627.7 563 600.3 563 573 559C545.7 555 518.3 547 491 547C463.7 547 436.3 555 409 559C381.7 563 354.3 563 327 564C299.7 565 272.3 567 245.2 568C218 569 191 569 163.8 571C136.7 573 109.3 577 82 573C54.7 569 27.3 557 13.7 551L0 545Z" fill="#001842"></path></svg>