<svg id="visual" viewBox="0 0 450 900" width="450" height="900" xmlns="http://www.w3.org/2000/svg" xmlns:xlink="http://www.w3.org/1999/xlink" version="1.1"><rect x="0" y="0" width="450" height="900" fill="#001220"></rect><path d="M86 0L87.5 11.5C89 23 92 46 88.5 69C85 92 75 115 71.5 138.2C68 161.3 71 184.7 71 207.8C71 231 68 254 63.8 277C59.7 300 54.3 323 54.2 346C54 369 59 392 59.3 415.2C59.7 438.3 55.3 461.7 50 484.8C44.7 508 38.3 531 43.5 554C48.7 577 65.3 600 73 623C80.7 646 79.3 669 75.7 692.2C72 715.3 66 738.7 68.5 761.8C71 785 82 808 80.3 831C78.7 854 64.3 877 57.2 888.5L50 900L0 900L0 888.5C0 877 0 854 0 831C0 808 0 785 0 761.8C0 738.7 0 715.3 0 692.2C0 669 0 646 0 623C0 600 0 577 0 554C0 531 0 508 0 484.8C0 461.7 0 438.3 0 415.2C0 392 0 369 0 346C0 323 0 300 0 277C0 254 0 231 0 207.8C0 184.7 0 161.3 0 138.2C0 115 0 92 0 69C0 46 0 23 0 11.5L0 0Z" fill="#fa7268"></path><path d="M43 0L48.2 11.5C53.3 23 63.7 46 65 69C66.3 92 58.7 115 51.7 138.2C44.7 161.3 38.3 184.7 34.5 207.8C30.7 231 29.3 254 33.8 277C38.3 300 48.7 323 48.3 346C48 369 37 392 32.3 415.2C27.7 438.3 29.3 461.7 30.7 484.8C32 508 33 531 38.7 554C44.3 577 54.7 600 58.8 623C63 646 61 669 61.2 692.2C61.3 715.3 63.7 738.7 66.5 761.8C69.3 785 72.7 808 75 831C77.3 854 78.7 877 79.3 888.5L80 900L0 900L0 888.5C0 877 0 854 0 831C0 808 0 785 0 761.8C0 738.7 0 715.3 0 692.2C0 669 0 646 0 623C0 600 0 577 0 554C0 531 0 508 0 484.8C0 461.7 0 438.3 0 415.2C0 392 0 369 0 346C0 323 0 300 0 277C0 254 0 231 0 207.8C0 184.7 0 161.3 0 138.2C0 115 0 92 0 69C0 46 0 23 0 11.5L0 0Z" fill="#eb5967"></path><path d="M32 0L30.5 11.5C29 23 26 46 24.7 69C23.3 92 23.7 115 23.2 138.2C22.7 161.3 21.3 184.7 22.2 207.8C23 231 26 254 29.2 277C32.3 300 35.7 323 39.5 346C43.3 369 47.7 392 46.5 415.2C45.3 438.3 38.7 461.7 34 484.8C29.3 508 26.7 531 31.3 554C36 577 48 600 53.7 623C59.3 646 58.7 669 57.8 692.2C57 715.3 56 738.7 51.5 761.8C47 785 39 808 40.2 831C41.3 854 51.7 877 56.8 888.5L62 900L0 900L0 888.5C0 877 0 854 0 831C0 808 0 785 0 761.8C0 738.7 0 715.3 0 692.2C0 669 0 646 0 623C0 600 0 577 0 554C0 531 0 508 0 484.8C0 461.7 0 438.3 0 415.2C0 392 0 369 0 346C0 323 0 300 0 277C0 254 0 231 0 207.8C0 184.7 0 161.3 0 138.2C0 115 0 92 0 69C0 46 0 23 0 11.5L0 0Z" fill="#da3f67"></path><path d="M39 0L38.7 11.5C38.3 23 37.7 46 33.2 69C28.7 92 20.3 115 17.3 138.2C14.3 161.3 16.7 184.7 19.3 207.8C22 231 25 254 24.3 277C23.7 300 19.3 323 17.7 346C16 369 17 392 20 415.2C23 438.3 28 461.7 31.5 484.8C35 508 37 531 38.7 554C40.3 577 41.7 600 37.7 623C33.7 646 24.3 669 21.5 692.2C18.7 715.3 22.3 738.7 22.5 761.8C22.7 785 19.3 808 20.5 831C21.7 854 27.3 877 30.2 888.5L33 900L0 900L0 888.5C0 877 0 854 0 831C0 808 0 785 0 761.8C0 738.7 0 715.3 0 692.2C0 669 0 646 0 623C0 600 0 577 0 554C0 531 0 508 0 484.8C0 461.7 0 438.3 0 415.2C0 392 0 369 0 346C0 323 0 300 0 277C0 254 0 231 0 207.8C0 184.7 0 161.3 0 138.2C0 115 0 92 0 69C0 46 0 23 0 11.5L0 0Z" fill="#c62368"></path></svg>